<?xml version="1.0" encoding="UTF-8" standalone="no"?>
<!DOCTYPE svg PUBLIC "-//W3C//DTD SVG 1.1//EN" "http://www.w3.org/Graphics/SVG/1.1/DTD/svg11.dtd">
<svg width="100%" height="100%" viewBox="0 0 490 490" version="1.1" xmlns="http://www.w3.org/2000/svg"
     xml:space="preserve"
     style="fill-rule:evenodd;clip-rule:evenodd;stroke-linejoin:round;stroke-miterlimit:2;">
    <g id="XMLID_129_">
        <path id="XMLID_134_"
              d="M473.725,5.656L213.576,5.656C204.921,5.656 197.921,12.678 197.921,21.32L197.921,131.804L209.24,118.57C214.615,112.278 221.701,108.398 229.232,106.777L229.232,36.978L458.068,36.978L458.068,241.509L229.233,241.509L229.233,207.271L222.183,215.515C216.022,222.704 207.325,227.165 197.921,228.044L197.921,257.168C197.921,265.81 204.921,272.823 213.576,272.823L298.065,272.823L255.141,467.7C253.218,476.439 258.741,485.082 267.487,487.01C276.154,488.914 284.869,483.409 286.774,474.679L331.231,272.824L357.075,272.824L401.532,474.679C403.198,482.236 409.901,487.393 417.335,487.384C418.489,487.384 419.669,487.267 420.837,487.01C429.583,485.082 435.105,476.44 433.165,467.7L390.245,272.823L473.726,272.823C482.373,272.823 489.381,265.81 489.381,257.168L489.381,21.32C489.38,12.678 482.372,5.656 473.725,5.656Z"
              style="fill:rgb(102,102,102);fill-rule:nonzero;"/>
      <path id="XMLID_132_"
            d="M349.368,97.116C348.134,94.006 344.636,92.479 341.528,93.71L249.294,126.265C240.829,119.711 228.616,120.882 221.557,129.092L192.29,163.27L166.339,141.025C166.51,142.862 166.899,144.647 166.899,146.532L166.899,194.823L181.337,207.194C189.905,214.532 202.722,213.398 209.886,204.996L244.728,164.253L272.828,147.814L346.779,104.547C349.336,103.073 350.469,99.923 349.368,97.116Z"
            style="fill:rgb(102,102,102);fill-rule:nonzero;"/>
      <path id="XMLID_131_"
            d="M109.928,105.776L92.547,105.776C79.239,105.776 67.537,112.244 60.099,122.103L6.747,171.223C-1.566,178.628 -2.32,191.455 5.166,199.818L48.694,248.403C56.115,256.712 68.961,257.447 77.273,249.979C85.607,242.51 86.311,229.717 78.843,221.393L48.84,187.889L91.456,149.755L66.636,183.476L90.915,210.583C104.331,225.575 103.066,248.61 88.081,262.036C77.85,271.208 63.888,273.36 51.784,269.13C51.784,269.13 51.972,362.789 51.972,463.092C51.972,476.508 62.846,487.383 76.263,487.383C89.666,487.383 100.554,476.508 100.554,463.092L100.554,318.321L116.757,318.321L116.757,463.092C116.757,470.096 114.804,476.582 111.69,482.323C115.766,485.458 120.838,487.383 126.366,487.383C139.79,487.383 150.664,476.508 150.664,463.092C150.664,362.82 150.695,404.855 150.695,146.531C150.697,124.022 132.45,105.776 109.928,105.776Z"
            style="fill:rgb(102,102,102);fill-rule:nonzero;"/>
      <path id="XMLID_130_"
            d="M79.592,91.198C86.087,94.574 93.379,96.669 101.212,96.669C109.065,96.669 116.357,94.574 122.871,91.192C138.075,83.315 148.555,67.633 148.555,49.33C148.555,23.184 127.359,1.995 101.211,1.995C75.067,1.995 53.876,23.184 53.876,49.33C53.877,67.643 64.368,83.331 79.592,91.198Z"
            style="fill:rgb(102,102,102);fill-rule:nonzero;"/>
    </g>
</svg>
